<?xml version="1.0" encoding="iso-8859-1"?>
<!-- Generator: Adobe Illustrator 19.0.0, SVG Export Plug-In . SVG Version: 6.00 Build 0)  -->
<svg version="1.1" id="Layer_1" xmlns="http://www.w3.org/2000/svg" xmlns:xlink="http://www.w3.org/1999/xlink" x="0px" y="0px"
	 viewBox="0 0 512 512" style="enable-background:new 0 0 512 512;" xml:space="preserve">
<g>
	<g>
		<path d="M392.704,460.8c-3.712,0-6.869,2.372-8.047,5.683c-0.597,1.698-2.167,2.85-3.968,2.85h-51.985
			c-2.355,0-4.267-1.911-4.267-4.267v-76.8c0-2.355-1.911-4.267-4.267-4.267h-42.667c-2.355,0-4.267,1.911-4.267,4.267v76.8
			c0,2.355-1.911,4.267-4.267,4.267h-69.052c-1.801,0-3.362-1.152-3.968-2.85c-1.178-3.311-4.335-5.683-8.047-5.683
			c-4.71,0-8.533,3.823-8.533,8.533V486.4c0,4.71,3.823,8.533,8.533,8.533c3.712,0,6.869-2.372,8.047-5.683
			c0.597-1.698,2.167-2.85,3.968-2.85h69.052c2.355,0,4.267,1.911,4.267,4.267v17.067c0,2.355,1.911,4.267,4.267,4.267h42.667
			c2.355,0,4.267-1.911,4.267-4.267v-17.067c0-2.355,1.911-4.267,4.267-4.267h51.985c1.801,0,3.362,1.152,3.968,2.85
			c1.178,3.311,4.335,5.683,8.047,5.683c4.71,0,8.533-3.823,8.533-8.533v-17.067C401.237,464.623,397.414,460.8,392.704,460.8z"/>
	</g>
</g>
<g>
	<g>
		<path d="M332.971,119.467h-68.267c-4.71,0-8.533,3.823-8.533,8.533s3.823,8.533,8.533,8.533c5.18,0,13.995,14.49,16.375,38.741
			c0.213,2.193,2.005,3.925,4.215,3.925h27.093c2.202,0,3.994-1.732,4.215-3.925c2.372-24.252,11.196-38.741,16.367-38.741
			c4.71,0,8.533-3.823,8.533-8.533S337.681,119.467,332.971,119.467z"/>
	</g>
</g>
<g>
	<g>
		<path d="M320.171,196.267h-42.667c-2.355,0-4.267,1.911-4.267,4.267V268.8c0,2.355,1.911,4.267,4.267,4.267h42.667
			c2.355,0,4.267-1.911,4.267-4.267v-68.267C324.437,198.178,322.526,196.267,320.171,196.267z"/>
	</g>
</g>
<g>
	<g>
		<path d="M341.504,290.133h-128V76.8h119.467c4.71,0,8.533-3.823,8.533-8.533C341.504,22.963,295.569,0,204.971,0
			c-61.85,0-94.208,96.188-94.208,191.206c0,45.841,7.672,88.073,21.598,118.912c16.785,37.171,41.89,56.815,72.61,56.815h136.533
			c4.71,0,8.533-3.823,8.533-8.533v-59.733C350.037,293.956,346.214,290.133,341.504,290.133z"/>
	</g>
</g>
<g>
</g>
<g>
</g>
<g>
</g>
<g>
</g>
<g>
</g>
<g>
</g>
<g>
</g>
<g>
</g>
<g>
</g>
<g>
</g>
<g>
</g>
<g>
</g>
<g>
</g>
<g>
</g>
<g>
</g>
</svg>
