<?xml version="1.0" encoding="UTF-8" standalone="no"?>
<!-- Generator: Adobe Illustrator 16.0.0, SVG Export Plug-In . SVG Version: 6.00 Build 0)  -->

<svg
   xmlns:dc="http://purl.org/dc/elements/1.1/"
   xmlns:cc="http://creativecommons.org/ns#"
   xmlns:rdf="http://www.w3.org/1999/02/22-rdf-syntax-ns#"
   xmlns:svg="http://www.w3.org/2000/svg"
   xmlns="http://www.w3.org/2000/svg"
   xmlns:sodipodi="http://sodipodi.sourceforge.net/DTD/sodipodi-0.dtd"
   xmlns:inkscape="http://www.inkscape.org/namespaces/inkscape"
   version="1.1"
   id="Capa_1"
   x="0px"
   y="0px"
   width="550"
   height="550"
   viewBox="0 0 550 550.00001"
   xml:space="preserve"
   inkscape:version="0.91 r13725"
   sodipodi:docname="booksquisher-users-guide-favicon-inkscape.svg"
   inkscape:export-filename="C:\Users\marmo\Desktop\book-publishing\project\booksquisher-users-guide\images\favicon\older-iPhone.png"
   inkscape:export-xdpi="19.636364"
   inkscape:export-ydpi="19.636364"><metadata
     id="metadata41"><rdf:RDF><cc:Work
         rdf:about=""><dc:format>image/svg+xml</dc:format><dc:type
           rdf:resource="http://purl.org/dc/dcmitype/StillImage" /><dc:title></dc:title><cc:license
           rdf:resource="http://creativecommons.org/licenses/by/3.0/" /></cc:Work><cc:License
         rdf:about="http://creativecommons.org/licenses/by/3.0/"><cc:permits
           rdf:resource="http://creativecommons.org/ns#Reproduction" /><cc:permits
           rdf:resource="http://creativecommons.org/ns#Distribution" /><cc:requires
           rdf:resource="http://creativecommons.org/ns#Notice" /><cc:requires
           rdf:resource="http://creativecommons.org/ns#Attribution" /><cc:permits
           rdf:resource="http://creativecommons.org/ns#DerivativeWorks" /></cc:License></rdf:RDF></metadata><defs
     id="defs39" /><sodipodi:namedview
     pagecolor="#ffffff"
     bordercolor="#666666"
     borderopacity="1"
     objecttolerance="10"
     gridtolerance="10"
     guidetolerance="10"
     inkscape:pageopacity="0"
     inkscape:pageshadow="2"
     inkscape:window-width="1920"
     inkscape:window-height="1017"
     id="namedview37"
     showgrid="false"
     borderlayer="true"
     inkscape:zoom="0.49637083"
     inkscape:cx="-364.64622"
     inkscape:cy="237.72549"
     inkscape:window-x="-8"
     inkscape:window-y="-8"
     inkscape:window-maximized="1"
     inkscape:current-layer="Capa_1" /><g
     id="g3"
     transform="translate(38.277835,38.285801)"
     style="fill:#800080"><path
       d="m 468.083,118.385 c -3.99,-5.33 -9.61,-9.419 -16.854,-12.275 0.387,6.665 -0.086,12.09 -1.42,16.281 l -85.65,281.789 c -1.526,4.948 -4.859,8.897 -9.992,11.848 -5.141,2.953 -10.469,4.428 -15.989,4.428 l -263.518,0 c -22.84,0 -36.542,-6.652 -41.112,-19.985 -1.903,-5.14 -1.807,-9.229 0.288,-12.275 2.092,-2.857 5.708,-4.288 10.85,-4.288 l 248.102,0 c 17.702,0 29.93,-3.285 36.688,-9.852 6.763,-6.567 13.565,-21.177 20.413,-43.824 L 428.117,71.563 C 432.303,57.479 430.591,45.106 422.976,34.45 415.361,23.794 404.514,18.463 390.428,18.463 l -217.265,0 c -2.474,0 -7.329,0.854 -14.562,2.568 l 0.284,-0.859 c -5.33,-1.14 -9.851,-1.662 -13.562,-1.571 -3.71,0.099 -7.137,1.192 -10.277,3.289 -3.14,2.094 -5.664,4.328 -7.566,6.706 -1.903,2.38 -3.761,5.426 -5.568,9.136 -1.805,3.715 -3.33,7.142 -4.567,10.282 -1.237,3.14 -2.666,6.473 -4.281,9.998 -1.62,3.521 -3.186,6.423 -4.71,8.706 -1.143,1.523 -2.758,3.521 -4.854,5.996 -2.091,2.474 -3.805,4.664 -5.137,6.567 -1.331,1.903 -2.19,3.616 -2.568,5.14 -0.378,1.711 -0.19,4.233 0.571,7.566 0.76,3.328 1.047,5.753 0.854,7.277 -0.76,7.232 -3.378,16.414 -7.849,27.552 -4.471,11.136 -8.52,19.18 -12.135,24.126 -0.761,0.95 -2.853,3.092 -6.28,6.424 -3.427,3.33 -5.52,6.23 -6.279,8.704 -0.762,0.951 -0.81,3.617 -0.144,7.994 0.666,4.38 0.907,7.423 0.715,9.136 -0.765,6.473 -3.14,15.037 -7.139,25.697 -3.999,10.657 -7.994,19.414 -11.993,26.265 -0.569,1.141 -2.185,3.328 -4.853,6.567 -2.662,3.237 -4.283,5.902 -4.853,7.99 -0.38,1.523 -0.33,4.188 0.144,7.994 0.473,3.806 0.426,6.66 -0.144,8.562 -1.521,7.228 -4.377,15.94 -8.565,26.125 -4.187,10.178 -8.47,18.896 -12.851,26.121 -1.138,1.906 -2.712,4.145 -4.708,6.711 -1.999,2.566 -3.568,4.805 -4.711,6.707 -1.141,1.903 -1.903,3.901 -2.284,5.996 -0.19,1.143 0.098,2.998 0.859,5.571 0.76,2.566 1.047,4.612 0.854,6.14 -0.192,2.662 -0.57,6.187 -1.141,10.567 -0.572,4.373 -0.859,6.939 -0.859,7.699 -4.187,11.424 -3.999,23.511 0.572,36.269 5.33,14.838 14.797,27.36 28.406,37.541 13.61,10.185 27.74,15.27 42.398,15.27 l 263.521,0 c 12.367,0 24.026,-4.141 34.971,-12.416 10.944,-8.281 18.227,-18.507 21.837,-30.696 L 473.22,155.218 c 4.192,-13.708 2.481,-25.984 -5.137,-36.833 z m -303.773,0.571 5.997,-18.274 c 0.76,-2.474 2.329,-4.615 4.709,-6.423 2.38,-1.805 4.808,-2.712 7.282,-2.712 l 173.589,0 c 2.663,0 4.565,0.903 5.708,2.712 1.14,1.809 1.335,3.949 0.575,6.423 l -6.002,18.274 c -0.764,2.475 -2.327,4.611 -4.713,6.424 -2.382,1.805 -4.805,2.708 -7.278,2.708 l -173.584,0 c -2.666,0 -4.568,-0.9 -5.711,-2.708 -1.142,-1.813 -1.332,-3.949 -0.572,-6.424 z m -23.695,73.089 5.996,-18.271 c 0.76,-2.474 2.331,-4.615 4.709,-6.423 2.38,-1.809 4.805,-2.712 7.282,-2.712 l 173.583,0 c 2.666,0 4.572,0.9 5.712,2.712 1.14,1.809 1.331,3.949 0.568,6.423 l -5.996,18.271 c -0.759,2.474 -2.33,4.617 -4.708,6.423 -2.383,1.809 -4.805,2.712 -7.283,2.712 l -173.583,0 c -2.664,0 -4.567,-0.9 -5.708,-2.712 -1.144,-1.806 -1.333,-3.949 -0.572,-6.423 z"
       id="path5"
       inkscape:connector-curvature="0"
       style="fill:#800080" /></g><g
     id="g7"
     transform="translate(38.277835,38.285801)"
     style="fill:#800080" /><g
     id="g9"
     transform="translate(38.277835,38.285801)"
     style="fill:#800080" /><g
     id="g11"
     transform="translate(38.277835,38.285801)"
     style="fill:#800080" /><g
     id="g13"
     transform="translate(38.277835,38.285801)"
     style="fill:#800080" /><g
     id="g15"
     transform="translate(38.277835,38.285801)"
     style="fill:#800080" /><g
     id="g17"
     transform="translate(38.277835,38.285801)"
     style="fill:#800080" /><g
     id="g19"
     transform="translate(38.277835,38.285801)"
     style="fill:#800080" /><g
     id="g21"
     transform="translate(38.277835,38.285801)"
     style="fill:#800080" /><g
     id="g23"
     transform="translate(38.277835,38.285801)"
     style="fill:#800080" /><g
     id="g25"
     transform="translate(38.277835,38.285801)"
     style="fill:#800080" /><g
     id="g27"
     transform="translate(38.277835,38.285801)"
     style="fill:#800080" /><g
     id="g29"
     transform="translate(38.277835,38.285801)"
     style="fill:#800080" /><g
     id="g31"
     transform="translate(38.277835,38.285801)"
     style="fill:#800080" /><g
     id="g33"
     transform="translate(38.277835,38.285801)"
     style="fill:#800080" /><g
     id="g35"
     transform="translate(38.277835,38.285801)"
     style="fill:#800080" /></svg>